<?xml version="1.0" standalone="no"?>
<!DOCTYPE svg PUBLIC "-//W3C//DTD SVG 20010904//EN"
 "http://www.w3.org/TR/2001/REC-SVG-20010904/DTD/svg10.dtd">
<svg version="1.0" xmlns="http://www.w3.org/2000/svg"
 width="512.000000pt" height="512.000000pt" viewBox="0 0 512.000000 512.000000"
 preserveAspectRatio="xMidYMid meet">

<g transform="translate(0.000000,512.000000) scale(0.100000,-0.100000)"
fill="#000000" stroke="none">
<path d="M3865 4690 c-3 -5 -1 -10 4 -10 6 0 11 5 11 10 0 6 -2 10 -4 10 -3 0
-8 -4 -11 -10z"/>
<path d="M3722 4673 c-6 -10 -11 -22 -12 -28 -8 -33 -13 -36 -30 -20 -14 12
-20 13 -26 4 -5 -8 -3 -10 6 -4 8 5 11 4 7 -3 -4 -5 -16 -8 -27 -5 -11 3 -17
9 -14 14 3 5 0 9 -6 9 -8 0 -10 -9 -6 -24 4 -15 1 -26 -7 -29 -7 -3 -5 -6 6
-6 9 -1 17 4 17 10 0 6 6 9 14 6 7 -3 18 -1 24 5 6 6 12 6 17 -1 3 -6 -1 -14
-10 -17 -12 -5 -13 -10 -4 -20 8 -10 5 -12 -16 -8 -17 3 -24 1 -20 -6 3 -5 1
-10 -4 -10 -6 0 -11 -6 -11 -14 0 -8 -12 -24 -26 -35 -15 -12 -24 -21 -20 -21
12 0 -17 -24 -44 -37 l-25 -12 28 5 c16 4 27 2 27 -5 0 -6 -8 -11 -19 -11 -10
0 -23 -6 -29 -13 -11 -13 -10 -54 1 -49 4 1 13 2 20 2 7 1 5 6 -5 14 -24 18
-23 22 13 35 40 14 42 14 33 -1 -4 -7 -3 -9 1 -5 12 10 16 39 5 32 -5 -3 -11
-1 -14 4 -4 5 3 13 15 16 11 4 18 9 15 12 -2 3 6 16 20 30 19 19 31 23 50 19
14 -4 22 -11 18 -17 -4 -6 -9 -7 -13 -2 -8 11 -27 11 -40 -2 -7 -7 1 -14 24
-21 20 -6 33 -7 32 -1 -3 13 32 17 39 5 8 -12 -36 -49 -48 -42 -12 8 -9 -8 7
-36 8 -14 14 -19 15 -12 0 8 5 10 13 6 6 -4 4 2 -6 13 -19 21 -14 30 13 28 10
0 14 -9 12 -25 -1 -18 1 -21 7 -11 6 10 10 10 16 1 5 -8 11 -6 20 7 7 10 17
15 21 10 4 -4 2 -7 -4 -7 -7 0 -12 -5 -12 -12 0 -6 9 -3 21 8 12 10 23 18 25
17 12 -8 15 -1 4 12 -17 21 -6 32 34 30 19 0 32 3 30 7 -3 4 0 8 5 8 6 0 11 8
11 17 0 15 -2 14 -15 -3 -8 -10 -15 -15 -15 -10 0 5 -6 3 -14 -3 -11 -9 -16
-9 -22 0 -4 8 -3 9 4 5 7 -4 12 -2 12 3 0 6 6 11 14 11 21 0 29 30 8 30 -13 1
-11 4 7 14 14 8 32 12 40 9 13 -4 13 -3 2 5 -8 6 -10 15 -6 23 6 9 3 11 -9 6
-14 -5 -15 -3 -6 13 13 24 13 40 0 20 -9 -13 -10 -13 -10 1 0 8 6 21 13 28 10
10 8 11 -7 5 -11 -4 -21 -2 -27 7 -7 11 -9 11 -9 1 0 -7 -5 -10 -10 -7 -6 4
-8 10 -5 15 3 4 -6 7 -20 6 -14 0 -25 -7 -25 -15 0 -8 -8 -4 -20 10 -12 15
-19 19 -20 10 0 -11 -4 -10 -19 3 -18 17 -20 17 -29 -1z m45 -45 c-3 -8 -6 -5
-6 6 -1 11 2 17 5 13 3 -3 4 -12 1 -19z m118 -58 c-3 -5 -1 -10 6 -10 7 0 10
-2 7 -5 -3 -3 -13 -2 -22 1 -14 5 -15 9 -4 15 17 11 20 11 13 -1z m-85 -56 c0
-8 -19 -13 -24 -6 -3 5 1 9 9 9 8 0 15 -2 15 -3z m-10 -61 c26 -23 26 -43 0
-36 -11 3 -20 0 -20 -6 0 -18 -14 -13 -28 10 -11 18 -11 23 5 35 23 17 19 17
43 -3z"/>
<path d="M3763 4450 c2 -8 12 -16 23 -17 13 -2 15 -1 4 4 -8 3 -19 11 -23 17
-6 7 -7 6 -4 -4z"/>
<path d="M3695 4670 c-3 -5 -13 -6 -23 -3 -13 4 -13 2 3 -10 26 -21 30 -21 32
3 2 22 -2 25 -12 10z"/>
<path d="M3563 4598 c-13 -6 -23 -15 -23 -20 0 -4 -6 -8 -13 -8 -8 0 -22 -9
-32 -20 -13 -14 -21 -17 -26 -9 -4 8 -11 5 -18 -10 -7 -11 -16 -21 -22 -21 -6
0 -7 5 -4 10 4 6 1 9 -7 8 -7 -2 -12 3 -10 10 1 6 -2 12 -8 12 -13 0 -13 -17
1 -25 7 -5 3 -15 -10 -29 -12 -12 -19 -25 -16 -28 3 -2 -5 -4 -18 -4 -12 1
-21 -4 -20 -11 2 -7 0 -12 -5 -12 -25 4 -42 -2 -35 -13 12 -20 12 -37 1 -45
-7 -3 -8 -1 -4 5 4 7 2 12 -3 12 -6 0 -11 -8 -11 -19 0 -22 -23 -44 -35 -33
-5 4 -5 -1 -2 -10 8 -22 -2 -50 -15 -42 -5 4 -5 10 1 18 6 7 6 17 1 26 -8 12
-10 12 -10 1 0 -8 -6 -11 -17 -7 -15 5 -15 4 1 -9 11 -8 14 -15 7 -15 -7 0
-10 -4 -6 -9 3 -5 1 -12 -5 -16 -5 -3 -10 -12 -10 -18 0 -7 4 -6 10 3 5 8 10
10 10 5 0 -6 -4 -15 -10 -21 -6 -6 -6 -21 -1 -39 5 -17 10 -24 10 -17 1 8 6
10 14 6 8 -6 8 -3 -1 9 -14 17 -7 42 9 32 13 -9 11 9 -3 23 -9 9 -6 12 15 12
15 0 27 -4 27 -9 0 -5 7 -12 16 -15 14 -5 15 -4 4 9 -12 14 -6 54 6 42 3 -3
26 6 50 19 24 14 44 21 44 16 0 -5 7 -9 16 -9 15 0 14 2 -1 13 -10 8 -22 11
-26 8 -5 -3 -6 2 -3 10 3 9 10 13 15 10 5 -3 9 0 9 5 0 6 4 11 9 11 5 0 8 -7
7 -16 0 -9 5 -19 12 -21 6 -3 12 2 12 10 0 24 24 39 40 24 12 -10 12 -9 3 3
-10 13 -3 24 32 61 24 26 41 49 38 53 -8 8 -33 -13 -33 -29 0 -6 -7 -12 -16
-12 -10 0 -14 7 -11 19 3 10 1 21 -4 24 -5 3 -7 10 -3 15 3 5 9 7 14 4 5 -3
11 -1 15 5 4 6 10 8 15 5 4 -3 11 2 14 11 3 9 11 12 18 8 10 -5 10 -4 0 7 -10
11 -8 17 10 31 26 20 23 22 -9 6z m-103 -178 c0 -5 -5 -10 -11 -10 -5 0 -7 5
-4 10 3 6 8 10 11 10 2 0 4 -4 4 -10z m-170 -74 c0 -2 -8 -10 -17 -17 -16 -13
-17 -12 -4 4 13 16 21 21 21 13z m65 -6 c-3 -5 -16 -10 -28 -10 -18 0 -19 2
-7 10 20 13 43 13 35 0z"/>
<path d="M3905 4531 c-3 -5 -1 -12 5 -16 5 -3 10 1 10 9 0 18 -6 21 -15 7z"/>
<path d="M3360 4509 c0 -13 -4 -18 -12 -13 -7 4 -8 3 -4 -4 11 -17 24 -15 35
7 8 14 7 20 -4 25 -10 4 -15 -1 -15 -15z"/>
<path d="M3565 4510 c3 -5 8 -10 11 -10 2 0 4 5 4 10 0 6 -5 10 -11 10 -5 0
-7 -4 -4 -10z"/>
<path d="M3928 4492 c-3 -11 0 -19 7 -19 7 0 10 8 7 19 -2 10 -6 18 -7 18 -1
0 -5 -8 -7 -18z"/>
<path d="M3307 4493 c-4 -3 -2 -12 5 -20 8 -11 7 -12 -5 -7 -10 3 -21 -2 -28
-14 -12 -19 -14 -19 -27 -4 -7 9 -11 12 -8 6 3 -7 -1 -17 -9 -24 -8 -7 -15
-18 -15 -24 0 -6 7 -3 14 7 14 18 15 17 21 -3 4 -12 4 -24 1 -27 -3 -4 -6 2
-6 12 0 14 -3 16 -11 8 -6 -6 -17 -9 -23 -7 -6 2 -29 -12 -51 -31 -22 -19 -34
-35 -27 -35 10 0 9 -4 -2 -16 -9 -8 -14 -20 -11 -25 4 -5 0 -6 -8 -3 -9 3 -22
-4 -31 -18 -9 -12 -16 -18 -16 -13 0 6 -9 -5 -20 -22 -18 -31 -31 -38 -55 -33
-5 1 -2 -7 8 -18 17 -19 17 -19 -7 -17 -22 3 -24 0 -21 -26 2 -16 -1 -27 -6
-24 -5 4 -9 1 -9 -4 0 -6 -7 -11 -15 -11 -8 0 -14 -3 -14 -7 3 -20 -2 -26 -11
-13 -8 13 -10 13 -10 -2 0 -9 6 -19 13 -21 6 -3 1 -6 -12 -6 -16 -1 -21 -5
-17 -16 3 -9 0 -15 -9 -15 -8 0 -15 -4 -15 -10 0 -5 8 -6 18 -3 16 7 16 6 -1
-11 -27 -27 -40 -56 -25 -56 6 0 3 -7 -8 -15 -19 -15 -19 -15 1 -8 18 6 19 5
5 -12 -9 -11 -10 -16 -3 -11 10 5 12 -3 10 -31 -2 -39 -24 -76 -39 -67 -4 3
-5 -2 -2 -10 3 -9 2 -16 -4 -16 -6 0 -8 -9 -5 -20 3 -13 -1 -22 -11 -26 -14
-5 -14 -9 -4 -22 11 -13 10 -15 -5 -9 -14 5 -18 3 -15 -11 2 -9 10 -16 16 -15
17 4 15 -5 -8 -29 -11 -12 -20 -28 -20 -35 0 -7 -5 -13 -11 -13 -6 0 -8 -9 -4
-20 4 -11 2 -20 -4 -20 -6 0 -11 -8 -12 -17 0 -15 -2 -15 -11 3 -7 15 -16 20
-34 16 -13 -2 -24 -8 -24 -13 0 -5 6 -6 14 -3 14 5 46 -20 46 -37 0 -8 -15
-13 -32 -10 -5 0 -8 -4 -8 -9 0 -6 4 -10 9 -10 5 0 8 -11 7 -25 l-1 -25 -17
23 c-22 28 -24 10 -2 -21 9 -13 11 -22 4 -22 -6 0 -8 -4 -5 -10 3 -5 0 -7 -8
-4 -10 4 -15 -2 -16 -18 -1 -29 -9 -92 -11 -95 -2 -2 -3 -6 -5 -10 -1 -5 -5
-16 -9 -26 -5 -9 -3 -61 4 -115 11 -90 14 -142 11 -231 -2 -44 21 -62 30 -23
6 23 7 21 8 -14 0 -22 5 -44 10 -50 5 -5 12 -36 15 -69 4 -33 7 -65 8 -72 2
-15 26 -25 33 -14 3 5 -2 11 -10 15 -8 3 -15 13 -15 23 0 15 2 16 10 3 9 -13
11 -13 19 0 7 9 6 19 -1 27 -6 8 -8 16 -5 19 3 3 13 -8 22 -25 12 -25 13 -31
2 -31 -8 0 -14 -11 -14 -30 0 -19 -8 -37 -23 -50 -13 -11 -20 -26 -16 -35 3
-8 -3 -30 -14 -48 -22 -36 -25 -47 -10 -47 6 0 10 7 10 16 0 8 6 22 13 29 6 8
23 30 37 50 14 20 35 48 48 63 12 14 21 31 18 39 -3 7 0 15 6 19 7 4 8 3 4 -4
-4 -7 -2 -12 3 -12 10 0 16 22 12 43 -1 5 3 5 9 2 14 -8 52 24 44 37 -3 5 6
18 20 29 14 11 26 26 25 32 0 7 -7 2 -16 -10 -17 -25 -33 -30 -33 -11 0 6 3 9
6 5 4 -3 15 4 24 16 13 16 15 26 8 35 -8 9 -7 11 7 6 13 -5 16 -4 11 4 -4 7
-3 12 3 12 5 0 8 11 6 25 -1 14 2 28 7 31 4 3 6 10 3 15 -4 5 -2 9 4 9 6 0 8
7 4 16 -5 13 -7 13 -14 2 -5 -8 -9 -9 -9 -2 0 6 8 18 17 25 10 8 14 9 10 2 -4
-6 -2 -15 4 -18 5 -4 8 -13 5 -21 -6 -16 18 -14 50 4 12 6 25 8 29 4 5 -4 5
-2 1 5 -3 6 -2 14 4 18 6 4 10 -5 10 -20 0 -18 -4 -24 -12 -19 -9 5 -9 2 1 -9
14 -18 22 -22 20 -9 -4 26 4 44 24 52 l22 10 -22 -3 c-30 -3 -31 15 -2 30 13
7 23 17 22 23 -2 5 7 10 20 10 18 0 19 2 7 10 -12 8 -10 10 8 10 16 0 21 4 16
13 -5 8 -2 8 9 -2 9 -7 18 -11 18 -7 1 3 2 11 3 17 0 5 12 19 26 29 14 11 19
20 13 20 -7 0 -22 -9 -33 -20 -11 -11 -23 -20 -26 -20 -3 0 -18 -8 -32 -19
-15 -10 -35 -17 -46 -15 -14 2 -16 0 -7 -9 15 -15 14 -27 -3 -21 -14 5 -16 28
-3 40 14 14 7 21 -18 19 -14 -2 -28 2 -32 7 -3 6 -1 8 5 4 6 -3 13 -2 17 4 4
6 10 8 15 5 11 -7 31 20 28 36 -2 7 2 13 9 14 6 0 15 3 19 8 4 4 14 7 23 7 10
0 6 -7 -11 -18 -34 -20 -35 -28 -7 -43 20 -10 21 -9 16 10 -4 15 4 28 26 47
18 15 33 31 33 35 3 22 5 23 13 10 6 -9 11 -10 15 -2 4 6 3 11 -3 11 -12 0 -8
27 7 42 7 7 12 9 12 5 0 -4 9 -3 21 3 11 7 18 14 15 18 -4 3 4 17 16 30 l23
25 -29 -19 c-28 -18 -91 -30 -82 -15 3 4 -5 8 -17 8 -12 1 -17 -1 -12 -5 15
-10 18 -35 4 -30 -21 7 -18 38 4 50 12 7 26 11 31 10 4 -2 15 3 24 10 14 11
15 10 9 -6 -7 -16 -5 -17 9 -5 10 8 12 15 5 17 -6 2 -9 8 -6 12 3 5 1 12 -5
15 -6 4 -9 1 -8 -6 3 -15 -31 -19 -49 -6 -7 5 -10 13 -7 19 3 5 12 4 20 -3 20
-16 49 7 33 27 -6 8 -16 11 -22 7 -6 -4 -7 -1 -3 6 6 9 13 8 27 -5 20 -18 22
-15 22 29 0 10 2 16 5 13 2 -3 13 -1 23 5 15 7 17 6 13 -6 -3 -8 -9 -13 -13
-11 -3 2 -13 -11 -22 -29 -15 -31 -15 -33 1 -32 11 1 15 7 12 19 -3 12 0 18 8
16 7 -2 16 10 21 25 6 24 4 29 -17 37 -13 5 -24 11 -24 13 0 8 46 2 52 -7 5
-7 8 -4 8 7 0 9 -1 19 -2 20 -2 2 3 11 10 20 15 18 7 41 -10 31 -7 -4 -8 -2
-4 5 6 9 11 9 22 0 8 -7 14 -7 14 -1 0 5 9 12 20 15 13 3 18 10 14 21 -5 12
-2 15 10 10 12 -5 15 -2 10 10 -3 9 -10 13 -15 10 -5 -3 -9 2 -9 10 0 19 5 20
31 6 15 -8 19 -8 17 2 -2 7 -7 16 -12 20 -6 4 2 10 17 13 22 6 25 10 16 21 -6
8 -9 15 -5 15 3 1 10 2 15 3 5 0 13 5 18 10 5 5 3 6 -4 2 -8 -4 -13 -2 -13 5
0 8 -4 9 -13 0 -10 -8 -14 -7 -14 3 0 8 8 13 18 11 10 -2 21 1 24 6 4 5 10 7
15 4 4 -3 6 4 3 16 -5 16 -2 20 13 17 13 -2 19 3 18 14 -1 9 4 14 11 12 17 -7
31 16 15 26 -9 6 -9 9 -1 15 7 4 24 -1 39 -11 27 -17 27 -17 9 3 -18 21 -14
58 6 46 6 -4 8 0 4 11 -5 11 -3 15 5 10 7 -5 9 -2 5 9 -4 11 -2 14 9 10 8 -3
14 1 14 11 0 9 4 16 8 16 4 0 8 -9 8 -19 0 -11 -4 -19 -9 -18 -5 1 -12 -4 -14
-10 -3 -7 2 -13 10 -13 14 0 33 34 30 50 -1 3 10 7 24 8 33 3 33 2 22 31 l-10
24 -20 -22 c-12 -12 -24 -19 -27 -16 -4 4 2 13 12 21 11 8 16 14 11 14 -5 0
-4 5 3 12 8 8 16 5 32 -13 14 -16 18 -18 14 -6 -7 20 13 50 28 41 5 -3 7 -12
4 -20 -4 -10 2 -14 17 -13 12 0 16 3 10 6 -20 7 -15 23 5 16 15 -6 16 -5 2 12
-14 17 -13 18 5 11 11 -4 16 -4 12 0 -4 4 2 14 13 21 24 17 20 27 -21 47 -29
14 -30 14 -18 -1 12 -15 11 -16 -7 -11 -21 5 -36 -11 -46 -50 -2 -10 -8 -9
-23 3 -14 10 -15 13 -4 9 25 -8 31 30 6 45 -17 11 -19 11 -14 -4 4 -9 3 -14
-3 -10 -13 8 -13 35 -1 35 6 0 13 -4 16 -10 3 -5 14 -10 23 -10 13 0 13 2 -4
16 -10 8 -13 13 -6 9 6 -3 12 -1 12 4 0 6 -5 11 -11 11 -20 0 -49 -21 -49 -35
0 -8 -6 -15 -12 -16 -7 0 -4 -4 6 -8 19 -7 19 -8 -2 -13 -12 -4 -20 -2 -19 5
1 6 -19 11 -46 13 -26 1 -45 -1 -42 -6 3 -4 -1 -10 -9 -13 -17 -7 -29 30 -14
40 7 3 8 1 4 -5 -9 -14 4 -15 24 -2 13 8 12 10 -2 10 -10 0 -18 5 -18 11 0 6
9 9 20 6 23 -6 26 5 7 21 -12 10 -39 2 -38 -11 1 -13 -41 -77 -51 -77 -5 0 -6
-5 -3 -10 3 -6 -1 -13 -9 -16 -9 -3 -13 -10 -10 -15 3 -5 -5 -9 -18 -9 l-23 1
23 19 22 19 -21 6 c-20 7 -20 8 -5 17 9 5 14 13 11 19 -3 5 2 6 12 3 15 -5 16
-4 3 5 -20 14 -30 14 -30 -2 0 -8 -9 -22 -20 -32 -11 -10 -19 -25 -19 -34 1
-13 2 -13 6 2 2 9 11 17 19 17 11 0 10 -5 -6 -22 -20 -22 -20 -22 0 -43 20
-21 20 -21 0 -38 -11 -9 -20 -24 -20 -32 0 -8 -4 -15 -9 -15 -17 0 -42 -32
-37 -47 3 -8 1 -11 -4 -8 -6 4 -14 -4 -19 -17 -4 -13 -12 -23 -17 -23 -5 0 -8
-4 -6 -9 7 -20 -10 -45 -25 -39 -11 4 -14 2 -9 -5 4 -7 2 -12 -4 -12 -6 0 -9
-4 -5 -10 3 -5 -3 -18 -15 -30 -11 -11 -15 -20 -10 -20 6 0 1 -9 -10 -20 -12
-12 -18 -24 -16 -29 3 -4 -3 -17 -14 -28 -10 -12 -16 -24 -13 -27 4 -3 -1 -6
-10 -6 -9 0 -16 -3 -16 -7 4 -27 -3 -45 -16 -40 -19 8 -30 -10 -16 -27 9 -11
8 -14 -5 -12 -9 0 -19 -5 -22 -13 -3 -10 0 -12 11 -8 14 5 15 3 4 -14 -10 -16
-13 -17 -15 -4 -4 20 -22 20 -22 -1 0 -8 -4 -13 -9 -9 -5 3 -13 1 -16 -5 -4
-6 -3 -10 2 -9 18 3 47 -3 35 -8 -6 -2 -9 -9 -6 -15 4 -6 -1 -8 -15 -3 -17 5
-21 2 -21 -17 0 -18 2 -20 10 -8 24 37 4 -9 -73 -171 -46 -96 -89 -185 -95
-199 l-13 -25 6 25 c3 14 7 30 8 36 2 6 11 23 20 37 10 15 13 27 7 27 -5 0
-10 -5 -10 -11 0 -5 -5 -7 -12 -3 -7 5 -8 3 -3 -6 4 -7 3 -15 -3 -19 -6 -3
-13 -19 -16 -34 -2 -14 -8 -32 -12 -38 -3 -6 -2 -14 4 -18 7 -4 8 -12 2 -21
-8 -13 -10 -12 -10 3 0 10 -5 15 -10 12 -6 -4 -8 -11 -5 -16 4 -5 2 -9 -4 -9
-6 0 -16 10 -22 23 -12 21 -11 21 6 7 17 -14 18 -13 13 7 -4 13 -2 26 3 29 5
3 5 13 -1 23 -7 15 -6 18 8 17 10 -1 17 7 18 21 1 15 -3 20 -15 16 -13 -4 -13
-2 2 10 9 8 17 18 17 22 0 4 8 14 18 21 15 12 15 12 -6 7 -12 -3 -29 0 -37 7
-10 9 -15 9 -15 1 0 -23 -37 -10 -49 17 l-11 27 19 -22 c20 -24 37 -32 25 -11
-4 6 -3 8 4 4 6 -3 14 -1 18 6 10 15 13 48 5 45 -3 -1 -17 6 -31 16 -13 9 -19
17 -13 17 7 0 15 -4 18 -10 3 -5 17 -10 31 -10 13 0 24 -5 24 -11 0 -6 7 -8
17 -5 19 8 36 -13 23 -29 -5 -6 -5 -17 2 -25 8 -13 9 -12 5 1 -3 9 -1 21 5 27
7 7 4 16 -9 29 -19 20 -27 52 -12 54 5 1 13 2 18 3 5 0 13 5 18 10 4 5 3 6 -4
2 -6 -3 -14 -2 -18 4 -3 5 6 12 20 16 16 4 25 12 23 23 -1 9 1 22 5 29 5 6 4
12 0 12 -5 0 -9 8 -9 18 0 10 6 19 12 19 7 0 10 -6 7 -14 -3 -7 1 -13 8 -13 7
0 9 3 6 7 -4 3 -1 13 6 21 6 9 7 13 2 10 -6 -4 -17 -3 -25 3 -12 7 -9 9 10 9
l25 0 -25 20 c-27 21 -45 26 -35 10 3 -6 -1 -13 -10 -16 -10 -4 -13 -9 -6 -13
6 -4 3 -11 -9 -19 -17 -10 -18 -9 -13 6 3 9 10 23 16 30 6 8 6 12 -1 12 -6 0
-17 -12 -25 -26 -12 -22 -15 -24 -26 -10 -7 8 -11 21 -8 28 4 8 6 7 6 -4 1
-10 6 -18 12 -18 6 0 8 7 5 16 -4 10 -2 13 6 8 7 -5 9 0 6 14 -5 19 -4 20 15
10 19 -10 20 -9 9 4 -9 11 -10 18 -2 23 6 3 8 10 5 15 -3 4 11 3 30 -2 28 -9
32 -14 25 -29 -13 -23 -12 -29 1 -29 5 0 7 5 4 10 -3 6 -1 10 5 10 6 0 8 5 5
10 -3 6 1 10 10 10 9 0 13 -4 10 -10 -3 -5 -1 -10 4 -10 12 0 14 13 4 24 -11
11 -13 45 -3 51 6 3 10 1 10 -5 0 -7 7 -4 16 5 9 9 13 19 9 23 -4 4 -10 1 -12
-6 -4 -10 -9 -8 -19 5 -13 17 -14 17 -7 -1 5 -14 3 -17 -7 -11 -9 5 -11 4 -6
-3 4 -7 2 -12 -3 -12 -6 0 -11 5 -11 12 0 6 -3 8 -6 5 -4 -4 -1 -14 7 -23 12
-15 11 -16 -11 -10 -20 6 -22 5 -10 -4 13 -10 13 -11 0 -7 -8 2 -13 12 -12 22
3 14 0 17 -10 9 -8 -5 -5 -1 5 9 15 13 16 17 4 17 -9 0 -14 7 -12 18 2 9 4 21
4 25 1 5 5 6 10 3 5 -3 11 0 14 8 4 10 -1 13 -16 10 -12 -2 -16 -2 -9 2 6 3 9
10 6 16 -5 7 3 9 22 4 21 -5 25 -4 14 4 -8 5 -24 10 -35 11 -17 1 -17 2 -2 6
9 2 17 8 17 12 0 14 37 51 44 44 3 -3 6 -1 6 5 0 7 8 12 17 12 15 0 14 -3 -4
-15 -14 -10 -20 -22 -16 -31 5 -14 8 -13 18 6 10 18 13 19 24 7 9 -12 9 -18
-2 -28 -11 -12 -11 -17 5 -34 16 -16 18 -17 13 -2 -5 11 -2 17 8 17 21 0 29
40 11 57 -15 16 -18 24 -6 21 4 -1 17 1 30 6 24 8 29 30 10 42 -6 4 -8 3 -5
-2 3 -6 -4 -16 -16 -24 -20 -12 -21 -12 -9 3 8 9 10 22 6 28 -4 8 -3 9 4 5 7
-4 12 -2 12 5 0 8 3 9 13 0 8 -6 17 -8 20 -4 4 3 7 1 7 -5 0 -15 37 -16 46 -1
3 6 1 16 -5 22 -9 9 -11 8 -6 -5 5 -13 2 -18 -9 -18 -11 0 -16 9 -16 26 0 17
4 23 12 18 7 -5 9 -2 5 9 -4 11 -2 14 9 10 9 -3 14 0 12 8 -2 9 6 14 24 14 15
-1 25 1 23 4 -3 2 3 14 12 25 18 21 18 21 -3 4 -23 -20 -44 -23 -44 -8 0 6 5
10 10 10 6 0 10 10 10 23 0 18 2 19 10 7 5 -8 10 -12 11 -7 2 10 6 25 9 35 1
4 1 12 0 17 -1 6 2 7 6 2 4 -4 15 4 24 19 16 23 18 24 34 9 15 -15 15 -18 -6
-35 -12 -10 -28 -16 -34 -13 -22 8 -25 -16 -3 -27 14 -8 19 -8 15 -1 -4 6 4
10 21 10 67 0 84 14 57 48 -14 17 -14 17 -12 -6 2 -13 -2 -26 -8 -28 -9 -3
-11 18 -5 59 1 3 9 8 19 10 12 3 9 6 -10 10 -15 3 -25 1 -22 -3 3 -5 -2 -9
-12 -9 -11 0 -15 6 -11 20 3 10 -2 27 -10 37 -13 17 -13 16 -4 -3 6 -12 7 -25
3 -29 -7 -6 -8 -10 -11 -36 0 -6 -8 -9 -16 -5 -8 3 -15 1 -15 -5 0 -6 -7 -9
-15 -5 -8 3 -27 1 -41 -4 -16 -7 -32 -7 -44 0 -13 7 -19 6 -24 -5 -3 -9 -12
-12 -23 -9 -11 4 -14 2 -7 -3 32 -25 19 -50 -15 -29 -11 7 -13 3 -8 -19 6 -33
-1 -57 -14 -49 -8 5 -10 -1 -13 -45 -1 -8 -8 -16 -16 -19 -8 -3 -12 -1 -8 3 4
5 3 14 -3 22 -9 10 -8 13 1 13 7 0 10 7 6 15 -3 8 -1 15 4 15 6 0 10 7 10 15
0 8 6 15 13 15 8 0 7 4 -3 10 -10 6 -11 10 -2 10 6 0 12 7 12 15 0 8 5 15 11
15 6 0 9 6 6 13 -2 6 5 17 17 24 16 10 17 12 5 13 -19 0 -42 -24 -32 -33 3 -4
1 -7 -6 -7 -6 0 -11 6 -10 13 3 25 -1 38 -11 32 -6 -4 -8 -11 -5 -16 4 -5 0
-10 -7 -10 -7 -1 -23 -3 -36 -4 -17 -2 -22 2 -17 13 4 12 3 13 -10 2 -18 -15
-20 -36 -3 -46 6 -4 8 -3 5 3 -4 6 0 13 8 17 8 3 17 0 21 -6 5 -7 2 -8 -6 -3
-9 6 -12 4 -8 -7 5 -12 -2 -15 -30 -13 -27 1 -38 6 -40 19 -3 13 0 16 9 11 9
-6 11 -4 6 7 -8 23 16 53 37 45 9 -4 15 -3 12 2 -3 5 1 11 9 15 8 3 17 1 20
-4 3 -4 -1 -11 -7 -13 -9 -4 -10 -6 -1 -6 22 -2 24 17 3 32 -18 13 -19 15 -5
21 9 3 13 2 10 -4 -3 -6 -1 -10 4 -10 6 0 11 4 11 8 0 5 16 9 35 9 19 0 35 -4
35 -9 0 -4 -3 -7 -7 -7 -5 1 -17 1 -28 0 -16 -1 -17 -3 -5 -10 8 -6 18 -7 23
-4 6 3 19 6 31 7 14 1 22 9 24 24 2 12 -1 22 -6 22 -5 0 -8 11 -7 25 2 16 -2
25 -11 25 -8 0 -14 5 -14 10 0 6 8 10 18 10 9 0 13 3 7 8 -14 10 -20 66 -6 57
8 -4 10 2 7 19 -3 14 0 28 5 32 5 3 9 2 8 -3 -3 -20 2 -25 16 -13 8 7 12 16 9
21 -8 14 20 11 36 -3 8 -7 12 -9 8 -4 -4 5 -3 17 3 27 7 14 6 19 -2 19 -16 0
10 30 35 39 11 4 20 17 21 29 2 22 -6 28 -18 15z m-147 -233 c-7 -14 -7 -25 1
-38 10 -16 8 -23 -8 -39 -17 -17 -24 -18 -46 -9 -23 10 -24 12 -9 26 14 13 15
12 9 -3 -5 -12 -1 -17 13 -17 22 0 28 19 8 21 -7 1 -2 5 12 9 25 8 25 8 -5 10
-16 1 -23 4 -14 7 9 2 21 15 27 28 7 14 14 25 17 25 3 0 1 -9 -5 -20z m26 -91
c3 -6 2 -14 -2 -18 -5 -3 -8 -4 -7 -2 2 2 -5 10 -15 17 -16 12 -16 13 0 14 9
0 20 -5 24 -11z m459 -49 c3 -5 1 -10 -4 -10 -6 0 -11 5 -11 10 0 6 2 10 4 10
3 0 8 -4 11 -10z m212 -7 c0 -11 -33 -28 -47 -24 -6 1 -8 23 -3 33 7 13 50 5
50 -9z m-230 -33 c-1 -10 -3 -17 -5 -15 -3 2 -14 -2 -24 -10 -37 -25 -49 -6
-15 25 34 31 47 31 44 0z m40 1 c0 -11 -5 -17 -9 -15 -5 3 -6 9 -3 14 3 4 -1
11 -7 13 -8 4 -7 6 4 6 11 1 16 -6 15 -18z m64 2 c13 -17 13 -17 -6 -3 -11 8
-22 16 -24 17 -2 2 0 3 6 3 6 0 17 -8 24 -17z m-511 -32 c0 -5 -7 -11 -15 -15
-15 -5 -20 5 -8 17 9 10 23 9 23 -2z m177 -16 c0 -8 -4 -15 -9 -15 -4 0 -8 7
-8 15 0 8 4 15 8 15 5 0 9 -7 9 -15z m103 9 c0 -8 -19 -13 -24 -6 -3 5 1 9 9
9 8 0 15 -2 15 -3z m-520 -32 c0 -14 -2 -14 -9 -3 -7 11 -11 10 -20 -5 -6 -11
-11 -16 -11 -11 0 4 5 16 12 26 14 22 28 18 28 -7z m584 12 c3 -8 2 -12 -4 -9
-6 3 -10 10 -10 16 0 14 7 11 14 -7z m-648 -86 c5 -7 3 -8 -6 -3 -10 6 -12 4
-7 -7 4 -12 1 -14 -13 -11 -11 3 -16 11 -13 19 6 17 29 18 39 2z m644 -18
c-20 -13 -33 -13 -25 0 3 6 14 10 23 10 15 0 15 -2 2 -10z m-506 -11 c-4 -8 1
-9 17 -4 22 7 23 7 9 -10 -9 -11 -10 -16 -2 -11 15 9 15 1 0 -27 -10 -20 -10
-21 6 -8 9 8 19 11 23 7 3 -3 1 -6 -6 -6 -8 0 -11 -6 -7 -16 4 -12 2 -15 -9
-10 -8 3 -15 1 -15 -4 0 -13 -27 -13 -35 1 -11 16 5 25 16 9 7 -11 8 -9 7 10
-2 14 -7 28 -13 32 -6 5 -4 8 5 8 12 0 13 2 1 9 -12 8 -8 31 5 31 3 0 2 -5 -2
-11z m-159 -8 c3 -5 1 -12 -5 -16 -5 -3 -10 1 -10 9 0 18 6 21 15 7z m250 -10
c3 -5 2 -12 -3 -15 -5 -3 -9 1 -9 9 0 17 3 19 12 6z m327 -25 c7 4 8 2 4 -5
-9 -13 -26 -5 -25 12 0 9 2 8 6 -1 2 -6 10 -9 15 -6z m72 -25 c4 -5 -3 -7 -14
-4 -23 6 -26 13 -6 13 8 0 17 -4 20 -9z m-31 -19 c20 -22 14 -32 -16 -24 -20
5 -20 6 -1 13 18 7 18 7 0 14 -11 5 -21 3 -27 -6 -5 -8 -9 -9 -9 -3 0 28 30
32 53 6z m-372 -60 c-6 -2 -8 -9 -5 -14 4 -7 2 -8 -5 -4 -6 4 -9 12 -5 17 3 5
0 18 -7 27 -10 12 -7 11 9 -3 13 -11 19 -21 13 -23z m307 24 c-7 -8 -15 -12
-17 -11 -5 6 10 25 20 25 5 0 4 -6 -3 -14z m27 -56 c-3 -5 -12 -10 -18 -10 -7
0 -6 4 3 10 19 12 23 12 15 0z m-58 -6 c-3 -3 -12 -4 -19 -1 -8 3 -5 6 6 6 11
1 17 -2 13 -5z m28 -24 c3 -5 1 -10 -4 -10 -6 0 -11 5 -11 10 0 6 2 10 4 10 3
0 8 -4 11 -10z m-28 -6 c-3 -3 -12 -4 -19 -1 -8 3 -5 6 6 6 11 1 17 -2 13 -5z
m-442 -24 c-3 -5 -14 -10 -23 -9 -14 0 -13 2 3 9 27 11 27 11 20 0z m439 -6
c3 -8 2 -12 -4 -9 -6 3 -10 10 -10 16 0 14 7 11 14 -7z m-437 -20 c-3 -3 -12
-4 -19 -1 -8 3 -5 6 6 6 11 1 17 -2 13 -5z m390 -20 c-3 -3 -12 -4 -19 -1 -8
3 -5 6 6 6 11 1 17 -2 13 -5z m-410 -30 c-3 -3 -12 -4 -19 -1 -8 3 -5 6 6 6
11 1 17 -2 13 -5z m393 -39 c19 -22 8 -25 -12 -3 -10 10 -14 18 -9 18 5 0 14
-7 21 -15z m-400 -121 c0 -2 -9 -4 -20 -4 -11 0 -20 4 -20 9 0 5 9 7 20 4 11
-3 20 -7 20 -9z m-15 -35 c-7 -10 -35 -1 -35 11 0 5 9 6 20 3 11 -3 17 -9 15
-14z m40 -28 c-6 -5 -25 10 -25 20 0 5 6 4 14 -3 8 -7 12 -15 11 -17z m-45 -7
c0 -2 -9 0 -20 6 -11 6 -20 13 -20 16 0 2 9 0 20 -6 11 -6 20 -13 20 -16z m-9
-24 l24 -10 -25 2 c-14 1 -30 -1 -37 -5 -6 -4 -15 -3 -18 3 -4 6 -3 10 2 9 21
-4 24 2 12 19 -12 15 -12 16 2 5 8 -7 26 -17 40 -23z m243 12 c3 -5 -1 -9 -9
-9 -8 0 -12 4 -9 9 3 4 7 8 9 8 2 0 6 -4 9 -8z m-234 -53 c0 -4 -11 -6 -25 -6
-13 0 -22 3 -20 8 6 9 45 8 45 -2z m369 -10 c-7 -4 -16 -6 -20 -3 -4 2 -12 -3
-19 -11 -7 -8 -21 -15 -32 -15 -17 0 -18 3 -8 15 7 8 16 12 21 9 5 -3 9 -1 9
5 0 11 29 19 48 13 11 -4 11 -6 1 -13z m-94 2 c3 -5 1 -12 -5 -16 -6 -4 -8
-10 -5 -15 3 -5 1 -11 -5 -15 -5 -3 -10 -11 -10 -17 0 -7 6 -6 15 2 8 7 15 9
15 4 0 -4 5 -3 12 4 7 7 16 12 22 12 5 0 -6 -12 -25 -26 -29 -23 -31 -25 -9
-19 24 7 24 7 5 -9 -18 -14 -21 -14 -32 1 -7 9 -13 21 -13 26 0 4 -6 5 -12 2
-7 -4 -3 2 10 12 17 14 20 21 11 30 -12 12 -5 33 11 33 5 0 11 -4 15 -9z
m-355 -32 c0 -6 -4 -7 -10 -4 -5 3 -10 11 -10 16 0 6 5 7 10 4 6 -3 10 -11 10
-16z m320 -61 c0 -6 -3 -8 -6 -5 -4 3 -16 2 -28 -4 -20 -10 -20 -10 -2 5 24
19 36 20 36 4z m-399 -15 c13 -16 12 -17 -3 -4 -10 7 -18 15 -18 17 0 8 8 3
21 -13z m71 -16 c10 -19 9 -20 -4 -10 -8 7 -18 10 -21 6 -4 -3 -7 4 -7 16 0
25 15 20 32 -12z m48 3 c0 -5 -7 -10 -16 -10 -8 0 -12 5 -9 10 3 6 10 10 16
10 5 0 9 -4 9 -10z m-62 -40 c7 -11 10 -20 6 -20 -7 0 -34 27 -34 34 0 13 16
5 28 -14z m42 -33 c0 -16 -18 3 -23 25 -6 22 -5 22 8 4 8 -11 15 -24 15 -29z
m208 -33 c7 4 10 -7 8 -29 -2 -38 -32 -78 -44 -59 -4 6 -15 10 -24 9 -11 -2
-15 2 -11 11 3 8 13 12 23 9 19 -6 57 29 41 39 -5 4 -15 -2 -21 -11 -9 -14
-10 -15 -7 -2 3 9 0 22 -6 29 -9 10 -9 11 1 6 7 -4 12 -2 12 6 0 10 2 10 9 -1
5 -7 13 -11 19 -7z m-182 -116 c-9 -25 -11 -25 -33 -11 -30 20 -29 23 5 17 26
-5 26 -4 7 10 -19 14 -19 14 6 13 23 -2 25 -4 15 -29z m-75 -21 c-10 -9 -11
-8 -5 6 3 10 9 15 12 12 3 -3 0 -11 -7 -18z m4 -96 c-6 -5 -25 10 -25 20 0 5
6 4 14 -3 8 -7 12 -15 11 -17z m-98 -73 c-2 -18 -4 -6 -4 27 0 33 2 48 4 33 2
-15 2 -42 0 -60z m98 33 c3 -6 -4 -9 -15 -8 -11 1 -20 5 -20 9 0 11 28 10 35
-1z"/>
<path d="M3599 4083 c-13 -16 -12 -17 4 -4 9 7 17 15 17 17 0 8 -8 3 -21 -13z"/>
<path d="M3962 4440 c0 -14 2 -19 5 -12 2 6 2 18 0 25 -3 6 -5 1 -5 -13z"/>
<path d="M3634 4432 c-17 -11 -24 -41 -12 -48 6 -4 8 -3 4 4 -3 5 -1 12 6 14
6 2 12 12 14 21 3 19 3 19 -12 9z"/>
<path d="M3869 4413 c-9 -10 -24 -23 -35 -29 -18 -11 -18 -11 1 -8 35 4 65 16
65 26 0 5 -5 6 -12 2 -8 -5 -9 -2 -5 9 8 21 5 21 -14 0z"/>
<path d="M3658 4394 c-8 -7 2 -44 12 -44 4 0 5 11 2 25 -5 27 -6 28 -14 19z"/>
<path d="M3594 4376 c1 -8 5 -18 8 -22 4 -3 5 1 4 10 -1 8 -5 18 -8 22 -4 3
-5 -1 -4 -10z"/>
<path d="M3623 4350 c-1 -11 3 -20 8 -20 6 0 7 -6 3 -12 -4 -7 -3 -9 2 -5 13
12 13 57 0 57 -7 0 -12 -9 -13 -20z"/>
<path d="M3706 4344 c-13 -18 -21 -22 -26 -14 -5 9 -9 9 -14 1 -4 -6 -2 -11 3
-11 6 0 11 -8 11 -17 0 -13 5 -10 19 10 11 18 21 25 25 18 4 -6 4 -11 0 -11
-4 0 3 -11 15 -24 l23 -24 -21 -11 c-15 -9 -21 -9 -21 -1 0 6 -5 8 -11 4 -8
-4 -7 -9 2 -15 18 -11 -1 -45 -22 -42 -8 2 -20 -7 -27 -18 -8 -12 -9 -18 -3
-15 5 4 12 2 16 -4 3 -5 0 -10 -7 -10 -10 0 -9 -3 2 -9 22 -15 33 -1 15 19
-11 12 -13 20 -6 25 6 3 11 1 11 -4 0 -6 8 -11 18 -11 14 0 15 2 2 10 -13 8
-12 10 3 10 16 0 21 10 18 39 -2 7 2 10 7 7 6 -3 13 1 16 10 3 8 10 13 14 10
5 -3 8 5 7 17 -1 15 -7 21 -20 19 -16 -3 -17 -1 -7 11 10 12 9 16 -8 20 -13 3
-18 10 -14 21 9 23 2 19 -20 -10z"/>
<path d="M3746 4353 c-6 -14 -5 -15 5 -6 7 7 10 15 7 18 -3 3 -9 -2 -12 -12z"/>
<path d="M3773 4356 c0 -9 5 -16 11 -16 6 0 5 -4 -3 -9 -10 -7 -7 -9 12 -8 18
2 23 5 14 12 -6 6 -16 16 -22 24 -10 11 -12 11 -12 -3z"/>
<path d="M3480 4340 c0 -5 5 -10 11 -10 5 0 7 5 4 10 -3 6 -8 10 -11 10 -2 0
-4 -4 -4 -10z"/>
<path d="M3565 4340 c3 -5 8 -10 11 -10 2 0 4 5 4 10 0 6 -5 10 -11 10 -5 0
-7 -4 -4 -10z"/>
<path d="M3945 4340 c3 -5 8 -10 11 -10 2 0 4 5 4 10 0 6 -5 10 -11 10 -5 0
-7 -4 -4 -10z"/>
<path d="M3105 4319 c-4 -6 -5 -12 -2 -15 2 -3 7 2 10 11 7 17 1 20 -8 4z"/>
<path d="M3445 4322 c3 -3 0 -11 -6 -19 -13 -15 -13 -15 19 -18 12 -1 22 2 22
7 0 5 4 7 9 3 5 -3 12 -1 15 4 4 5 -7 7 -26 4 -27 -4 -30 -3 -20 9 9 12 9 15
-3 15 -8 0 -13 -3 -10 -5z"/>
<path d="M3580 4322 c-8 -4 -15 -14 -15 -22 0 -9 -8 -14 -20 -13 l-20 2 20
-14 c11 -8 26 -19 33 -25 9 -8 12 -7 12 5 0 9 10 20 23 25 20 8 20 9 2 10 -17
0 -17 2 -5 10 13 8 12 10 -3 10 -10 0 -15 5 -12 10 7 11 6 11 -15 2z m13 -26
c3 -8 -2 -16 -13 -19 -16 -4 -17 -2 -7 14 14 23 13 23 20 5z"/>
<path d="M3375 4310 c3 -5 8 -10 11 -10 2 0 4 5 4 10 0 6 -5 10 -11 10 -5 0
-7 -4 -4 -10z"/>
<path d="M3649 4293 c-1 -10 -1 -22 0 -26 1 -5 -3 -6 -8 -3 -5 4 -12 2 -16 -4
-4 -6 -11 -7 -17 -4 -6 4 -8 2 -5 -3 9 -15 55 -13 68 3 7 9 7 18 -1 33 -13 26
-20 27 -21 4z"/>
<path d="M3353 4267 c-1 -11 -1 -18 0 -16 2 2 8 11 15 20 9 12 9 16 -1 16 -7
0 -14 -9 -14 -20z"/>
<path d="M3808 4283 c7 -3 16 -2 19 1 4 3 -2 6 -13 5 -11 0 -14 -3 -6 -6z"/>
<path d="M3399 4263 c-7 -10 -9 -15 -4 -10 4 4 16 0 26 -9 9 -8 20 -11 23 -6
3 5 -3 17 -13 26 -17 15 -19 15 -32 -1z"/>
<path d="M3795 4260 c-3 -5 -5 -10 -3 -11 19 -4 51 -9 47 -6 -2 1 -11 8 -21
15 -11 9 -18 10 -23 2z"/>
<path d="M3525 4251 c-3 -5 -1 -12 5 -16 16 -10 -5 -38 -28 -40 -12 -1 -19 2
-16 7 3 4 11 8 19 8 26 0 24 17 -3 29 -25 11 -26 10 -8 -4 11 -8 15 -16 8 -16
-7 -1 -16 -3 -22 -4 -5 -1 -16 -3 -22 -4 -10 -1 -10 -3 1 -10 19 -12 -15 -65
-37 -56 -13 5 -13 3 -1 -11 12 -14 14 -14 27 3 7 10 17 17 22 16 5 -2 7 4 4
12 -7 18 -4 18 30 5 16 -6 27 -6 31 0 4 6 1 10 -5 10 -6 0 -8 5 -5 10 4 6 11
7 17 4 7 -4 8 -2 4 4 -10 16 6 15 24 0 12 -11 12 -10 2 3 -6 9 -9 19 -5 22 7
7 -15 37 -28 37 -4 0 -10 -4 -14 -9z m30 -12 c11 -16 1 -19 -13 -3 -7 8 -8 14
-3 14 5 0 13 -5 16 -11z"/>
<path d="M3925 4250 c3 -5 8 -10 11 -10 2 0 4 5 4 10 0 6 -5 10 -11 10 -5 0
-7 -4 -4 -10z"/>
<path d="M3390 4220 c-6 -11 -18 -20 -28 -20 -15 -1 -15 -2 3 -16 13 -9 21
-11 23 -4 3 8 8 7 18 -1 11 -9 14 -7 14 9 0 16 -4 20 -16 15 -14 -5 -15 -3 -5
15 7 12 9 22 7 22 -3 0 -10 -9 -16 -20z"/>
<path d="M3620 4230 c-16 -11 -15 -11 18 -15 18 -2 20 0 11 11 -13 16 -10 16
-29 4z"/>
<path d="M3873 4220 c1 -20 12 -26 20 -12 3 4 -1 13 -8 19 -11 10 -13 9 -12
-7z"/>
<path d="M3308 4209 c-15 -15 -15 -19 -3 -19 8 0 19 9 25 20 13 25 1 25 -22
-1z"/>
<path d="M3810 4215 c0 -8 2 -15 4 -15 2 0 6 7 10 15 3 8 1 15 -4 15 -6 0 -10
-7 -10 -15z"/>
<path d="M3745 4200 c3 -5 8 -10 11 -10 2 0 4 5 4 10 0 6 -5 10 -11 10 -5 0
-7 -4 -4 -10z"/>
<path d="M3788 4192 c20 -22 25 -21 16 2 -3 9 -12 16 -20 16 -11 0 -10 -4 4
-18z"/>
<path d="M3246 4192 c-3 -5 1 -9 9 -9 8 0 12 4 9 9 -3 4 -7 8 -9 8 -2 0 -6 -4
-9 -8z"/>
<path d="M3875 4189 c-17 -6 -10 -11 11 -8 4 0 10 -5 14 -11 5 -8 9 -5 12 7 6
21 -6 24 -37 12z"/>
<path d="M3298 4129 c-9 -10 -14 -20 -10 -23 3 -3 0 -6 -6 -6 -7 0 -12 -4 -12
-8 0 -5 9 -8 21 -7 25 2 43 29 32 48 -6 10 -11 10 -25 -4z m22 -9 c0 -5 -5
-10 -11 -10 -5 0 -7 5 -4 10 3 6 8 10 11 10 2 0 4 -4 4 -10z"/>
<path d="M3505 4120 c-3 -5 -1 -10 4 -10 6 0 11 5 11 10 0 6 -2 10 -4 10 -3 0
-8 -4 -11 -10z"/>
<path d="M1218 4075 c-3 -4 -33 -8 -65 -10 -32 -2 -79 -9 -103 -15 -25 -7 -57
-14 -72 -17 -16 -3 -28 -10 -28 -15 0 -5 -6 -8 -12 -5 -7 2 -24 0 -38 -6 -14
-5 -37 -9 -52 -8 -21 1 -26 -2 -21 -15 3 -9 7 -25 8 -37 1 -12 3 -26 4 -31 0
-5 7 -3 15 3 11 9 19 9 35 -1 20 -12 23 -35 4 -31 -13 3 -7 -87 7 -100 10 -10
11 -8 6 8 -6 16 -5 17 5 8 9 -9 9 -16 1 -26 -9 -10 2 -38 44 -122 88 -174 137
-239 299 -400 144 -144 321 -284 348 -277 7 2 9 0 4 -4 -9 -9 159 -119 274
-179 47 -24 89 -42 93 -38 15 15 42 9 44 -10 1 -22 21 -39 35 -30 5 3 13 -1
18 -8 7 -11 9 -10 9 4 0 20 16 23 23 5 2 -7 3 -5 2 4 -2 10 4 23 13 30 9 7 13
8 9 2 -3 -6 0 -11 7 -11 8 0 12 6 9 13 -3 9 2 12 17 9 13 -2 19 -1 16 3 -4 4
-13 7 -19 7 -7 1 -11 7 -9 13 2 10 -3 10 -18 2 -11 -6 -21 -8 -21 -5 -1 3 -2
9 -3 13 -5 32 -89 64 -100 38 -2 -6 -5 0 -6 14 -1 14 -4 19 -7 13 -2 -7 -14
-12 -26 -12 -16 1 -17 3 -6 6 20 5 33 45 18 54 -7 4 -8 17 -4 30 5 19 4 21 -4
9 -13 -19 -14 -50 -1 -50 5 0 7 -7 4 -15 -5 -12 -10 -10 -25 9 -23 30 -24 35
-1 53 16 13 15 13 -7 7 -17 -4 -22 -3 -19 7 3 8 15 14 27 13 11 0 21 3 21 8 0
4 -4 8 -10 8 -5 0 -7 7 -3 16 3 10 8 12 12 5 4 -6 12 -1 20 12 9 15 10 18 1
10 -14 -13 -43 -6 -34 8 3 5 0 9 -6 9 -6 0 -10 -8 -9 -17 3 -32 -1 -44 -11
-38 -6 3 -8 18 -5 33 5 26 5 26 -5 4 -5 -13 -8 -28 -4 -33 3 -5 0 -9 -6 -9 -6
0 -8 -5 -4 -11 4 -8 1 -8 -14 0 -13 7 -19 17 -16 26 3 8 -1 27 -9 44 -13 26
-13 29 2 26 9 -1 16 -11 15 -22 0 -11 5 -20 12 -20 15 0 0 47 -19 59 -7 4 -12
12 -12 18 0 5 -4 9 -10 8 -5 -2 -9 -7 -7 -11 1 -5 -2 -5 -8 -2 -6 4 -9 13 -6
20 3 9 -2 11 -15 8 -20 -6 -20 -6 1 -28 17 -18 18 -24 7 -28 -8 -3 -19 -1 -25
5 -6 6 -12 6 -16 -1 -11 -17 -26 -13 -25 7 0 11 2 12 6 4 4 -10 8 -10 19 -1
18 15 18 30 0 23 -8 -3 -17 -1 -20 5 -4 6 -13 8 -21 4 -9 -3 -15 1 -15 11 0
18 15 22 25 6 4 -6 11 -7 17 -4 7 4 8 2 4 -4 -4 -7 -3 -12 3 -12 6 0 15 9 21
20 9 17 8 19 -7 13 -16 -6 -16 -5 -5 10 12 15 11 15 -18 7 -26 -7 -36 -5 -52
9 -14 14 -16 21 -7 26 8 5 10 4 5 -3 -4 -7 -2 -12 3 -12 6 0 11 6 11 13 0 9 3
8 9 -2 5 -7 11 -9 13 -5 3 5 3 3 2 -3 -2 -7 0 -13 5 -13 5 0 11 8 14 19 3 14
12 18 38 16 30 -3 31 -2 15 10 -10 8 -15 18 -12 24 4 5 -2 15 -11 21 -15 10
-15 11 -1 6 22 -6 30 28 12 51 -10 13 -13 14 -14 4 0 -8 -3 -11 -6 -8 -11 11
26 58 39 50 7 -4 7 0 -2 10 -13 16 -14 16 -28 0 -8 -10 -12 -12 -8 -5 4 7 1
20 -6 28 -9 11 -9 18 -1 26 9 9 12 7 12 -10 0 -22 18 -26 33 -7 4 6 9 2 13
-10 6 -22 54 -62 54 -45 0 5 -5 10 -12 10 -6 0 -8 3 -5 6 4 4 13 1 22 -6 8 -7
15 -9 16 -4 0 5 4 1 8 -9 7 -18 7 -18 21 0 8 10 10 15 6 11 -10 -9 -36 9 -36
24 0 5 6 6 13 2 7 -5 7 -1 -3 12 -22 30 -24 30 -16 10 7 -20 7 -20 -15 0 -11
10 -23 18 -25 17 -14 -9 -34 0 -40 20 -4 12 -12 25 -18 29 -6 4 -7 10 -2 15 4
4 12 0 17 -10 6 -9 14 -15 20 -12 5 3 6 0 3 -8 -7 -19 8 -28 26 -17 12 7 11
12 -4 29 -10 11 -22 18 -27 15 -4 -2 -16 7 -25 20 -12 19 -20 23 -33 17 -12
-7 -24 -4 -41 10 -14 11 -19 18 -11 17 7 -2 16 3 19 11 2 8 0 11 -6 7 -6 -3
-14 -1 -18 5 -4 8 -3 9 4 5 7 -4 12 -3 12 2 0 5 9 12 20 15 11 3 20 1 20 -5 0
-5 5 -6 11 -2 8 5 8 1 0 -14 -8 -15 -7 -23 4 -32 9 -7 18 -10 22 -7 3 4 15 2
27 -4 20 -10 20 -9 2 5 -10 9 -22 13 -26 11 -5 -3 -11 2 -14 10 -4 13 -2 13
14 5 27 -14 63 -13 57 3 -2 6 -10 11 -16 9 -7 -1 -10 2 -6 8 3 5 1 10 -5 10
-6 0 -8 5 -5 11 4 6 20 -7 37 -30 32 -45 42 -49 56 -25 7 13 11 12 25 -9 15
-24 15 -25 -6 -31 -12 -3 -24 -1 -25 4 -2 6 -8 8 -12 5 -5 -3 -15 4 -23 16 -9
13 -17 16 -22 10 -3 -6 -2 -11 4 -11 5 0 13 -9 16 -20 4 -11 10 -18 14 -15 5
2 8 -5 7 -18 0 -12 -9 -25 -18 -29 -10 -4 -18 -13 -18 -20 0 -9 3 -9 11 -1 8
8 18 9 36 0 19 -8 27 -7 40 6 15 15 14 17 -10 26 -15 6 -27 13 -27 16 0 2 11
0 25 -5 14 -5 25 -6 25 -2 0 4 5 0 10 -8 9 -13 10 -13 11 0 0 8 2 25 3 37 2
13 1 21 -2 18 -3 -2 -13 7 -24 20 -24 31 -20 55 5 31 22 -22 22 -8 0 16 -16
17 -10 24 19 19 4 0 5 6 1 15 -3 9 -9 12 -12 7 -10 -13 -81 -9 -90 5 -9 14
-32 13 -43 -3 -5 -6 -8 -6 -8 1 0 25 25 34 53 19 15 -8 25 -10 22 -5 -3 5 3
13 12 19 10 6 13 11 6 11 -6 0 -14 -4 -18 -10 -10 -16 -35 1 -35 24 0 16 -2
18 -9 7 -7 -11 -10 -10 -13 5 -3 10 2 26 9 36 11 12 12 18 2 24 -7 4 -10 3 -5
-4 3 -6 2 -13 -4 -17 -5 -3 -10 -2 -10 3 0 5 -7 9 -15 9 -11 0 -12 -4 -4 -14
6 -7 8 -13 3 -13 -5 0 -2 -5 6 -11 13 -9 12 -10 -2 -5 -10 3 -20 1 -23 -4 -3
-5 -13 -6 -22 -3 -9 4 -21 -1 -29 -12 -11 -14 -10 -21 3 -41 22 -35 11 -29
-16 7 -13 18 -19 29 -13 25 9 -5 19 8 20 28 0 5 6 12 13 17 10 6 10 11 -2 25
-13 16 -12 16 14 0 27 -18 27 -18 27 4 0 16 -4 20 -16 16 -8 -3 -12 -2 -9 3 3
5 1 12 -4 15 -5 4 -12 2 -16 -4 -4 -6 -11 -8 -16 -5 -12 8 -11 -1 2 -28 9 -19
8 -20 -3 -6 -7 9 -18 14 -25 12 -6 -2 -15 1 -19 8 -5 9 -2 10 9 6 12 -4 17 -1
17 9 0 10 6 14 14 11 10 -4 13 -1 9 8 -3 8 -10 12 -16 8 -6 -3 -7 -1 -3 6 6 8
12 9 20 2 13 -11 26 -5 26 11 0 5 -5 6 -12 2 -7 -4 -8 -3 -4 4 11 19 26 14 26
-9 0 -12 4 -17 11 -14 6 4 8 14 4 23 -5 14 -4 14 12 -1 13 -11 23 -13 33 -7
13 8 13 10 -1 10 -9 0 -20 7 -23 16 -3 8 -11 12 -16 9 -7 -4 -9 2 -4 19 4 17
2 26 -6 26 -6 0 -8 5 -4 12 4 6 3 8 -4 4 -6 -3 -13 -2 -17 4 -4 6 -10 8 -15 5
-4 -3 -11 2 -14 11 -4 9 -9 14 -12 11 -5 -5 -40 9 -117 48 -25 13 -29 13 -35
-3 -4 -9 -13 -18 -21 -20 -12 -3 -12 0 -2 12 7 8 9 20 5 27 -5 8 -9 7 -16 -5
-10 -18 -28 -22 -28 -5 0 5 5 7 11 3 7 -4 10 -1 7 7 -6 17 -77 38 -145 43 -28
2 -55 6 -60 8 -14 7 -128 10 -135 3z m372 -119 c0 -3 -4 -8 -10 -11 -5 -3 -10
-1 -10 4 0 6 5 11 10 11 6 0 10 -2 10 -4z m-654 -29 c1 -9 -1 -17 -6 -17 -12
0 -30 26 -23 34 11 10 26 1 29 -17z m689 3 c3 -6 -1 -7 -9 -4 -18 7 -21 14 -7
14 6 0 13 -4 16 -10z m115 0 c8 -5 11 -10 5 -10 -5 0 -17 5 -25 10 -8 5 -10
10 -5 10 6 0 17 -5 25 -10z m-39 -41 c13 -26 7 -24 -22 7 -17 19 -19 23 -6 18
10 -3 22 -15 28 -25z m84 13 c-3 -3 -11 0 -18 7 -9 10 -8 11 6 5 10 -3 15 -9
12 -12z m-856 -38 c4 3 8 -1 8 -7 0 -7 -11 -13 -23 -13 -20 0 -21 3 -12 20 7
14 13 16 16 8 2 -6 7 -10 11 -8z m828 1 c0 -8 -5 -11 -10 -8 -7 4 -8 -1 -3
-13 6 -15 5 -16 -5 -7 -10 10 -9 15 1 28 15 19 17 19 17 0z m-23 -51 c3 -8 2
-12 -4 -9 -6 3 -10 10 -10 16 0 14 7 11 14 -7z m-34 -52 c0 -5 -7 -17 -15 -28
-14 -18 -14 -17 -4 9 12 27 19 34 19 19z m-740 -62 c0 -5 -2 -10 -4 -10 -3 0
-8 5 -11 10 -3 6 -1 10 4 10 6 0 11 -4 11 -10z m50 -6 c0 -8 -19 -13 -24 -6
-3 5 1 9 9 9 8 0 15 -2 15 -3z m847 -14 c1 -11 -2 -18 -8 -15 -11 7 -12 35 -1
35 4 0 8 -9 9 -20z m-174 -7 c-3 -7 -9 -13 -14 -13 -5 0 -9 6 -9 13 0 8 6 14
14 14 8 0 12 -6 9 -14z m131 2 c-4 -8 -11 -12 -16 -9 -6 4 -5 10 3 15 19 12
19 11 13 -6z m-112 -23 c-7 -2 -12 -8 -12 -13 0 -6 5 -7 11 -4 6 4 16 -1 23
-10 12 -16 13 -16 31 1 12 12 17 14 14 5 -8 -22 -41 -39 -46 -23 -3 6 -11 12
-18 12 -8 0 -16 4 -19 9 -9 14 5 42 17 34 8 -5 7 -8 -1 -11z m214 -37 c7 -16
34 -16 47 0 5 6 7 5 5 -3 -2 -8 -8 -13 -13 -12 -5 1 -12 -6 -15 -16 -5 -14
-10 -12 -29 14 -12 18 -17 32 -11 32 6 0 13 -7 16 -15z m-226 -117 c0 -6 -6
-5 -15 2 -8 7 -15 14 -15 16 0 2 7 1 15 -2 8 -4 15 -11 15 -16z m30 -23 c0 -8
-2 -15 -4 -15 -2 0 -6 7 -10 15 -3 8 -1 15 4 15 6 0 10 -7 10 -15z m40 -32 c0
-20 -3 -24 -11 -16 -7 7 -9 19 -6 27 10 24 17 19 17 -11z m214 5 c-3 -4 -12
-8 -20 -8 -8 0 -14 4 -14 8 0 4 9 8 19 8 11 0 17 -4 15 -8z m-184 -104 c0 -2
-7 -4 -16 -4 -10 0 -14 6 -10 15 3 8 1 15 -4 15 -5 0 -7 7 -3 15 4 12 9 10 19
-11 8 -14 14 -28 14 -30z m-10 -18 c0 -3 -4 -8 -10 -11 -5 -3 -10 -1 -10 4 0
6 5 11 10 11 6 0 10 -2 10 -4z m-80 -16 c0 -5 -5 -10 -11 -10 -5 0 -7 5 -4 10
3 6 8 10 11 10 2 0 4 -4 4 -10z m114 -12 c-3 -4 -9 -8 -15 -8 -5 0 -9 4 -9 8
0 5 7 9 15 9 8 0 12 -4 9 -9z m-89 -18 c-2 -3 0 -12 6 -20 7 -13 9 -13 9 0 0
11 3 11 11 -3 8 -14 8 -22 -1 -30 -8 -9 -10 -8 -5 5 5 14 2 16 -14 13 -13 -2
-19 0 -15 6 3 5 1 16 -5 23 -8 9 -7 13 4 13 8 0 12 -3 10 -7z m-31 -26 c3 -8
2 -12 -4 -9 -6 3 -10 1 -10 -6 0 -7 -2 -10 -5 -7 -5 5 4 38 10 38 2 0 6 -7 9
-16z m56 -169 c0 -8 -2 -15 -4 -15 -2 0 -6 7 -10 15 -3 8 -1 15 4 15 6 0 10
-7 10 -15z m90 -34 c0 -14 2 -14 10 -1 7 10 10 11 10 2 0 -18 -29 -27 -49 -15
-9 5 -27 9 -40 8 -21 -2 -22 0 -8 10 25 18 77 15 77 -4z m-57 -41 c3 -11 1
-18 -4 -14 -5 3 -9 12 -9 20 0 20 7 17 13 -6z m284 -195 c0 -11 -4 -12 -14 -4
-7 6 -13 15 -13 20 0 5 6 6 13 3 8 -3 14 -11 14 -19z m33 -9 c0 -3 -4 -8 -10
-11 -5 -3 -10 -1 -10 4 0 6 5 11 10 11 6 0 10 -2 10 -4z m-55 -16 c3 -5 1 -10
-4 -10 -6 0 -11 5 -11 10 0 6 2 10 4 10 3 0 8 -4 11 -10z m43 -17 c-9 -2 -19
-11 -22 -20 -5 -13 -4 -14 9 -3 9 7 19 10 22 6 8 -8 -16 -26 -34 -26 -16 0
-16 6 -3 31 6 10 18 18 28 18 15 -1 15 -2 0 -6z m-51 -35 c-3 -8 -6 -5 -6 6
-1 11 2 17 5 13 3 -3 4 -12 1 -19z"/>
<path d="M3801 4017 c-1 -12 -6 -16 -13 -11 -7 4 -10 4 -6 -1 4 -4 3 -14 -3
-22 -14 -16 3 -17 19 -1 7 7 12 8 12 2 0 -6 -5 -15 -12 -22 -8 -8 -8 -12 -1
-12 17 0 23 25 13 57 -5 17 -9 21 -9 10z"/>
<path d="M2850 3990 c0 -5 5 -10 11 -10 5 0 7 5 4 10 -3 6 -8 10 -11 10 -2 0
-4 -4 -4 -10z"/>
<path d="M3275 3929 c-4 -6 -5 -12 -2 -15 2 -3 7 2 10 11 7 17 1 20 -8 4z"/>
<path d="M3669 3918 c-6 -22 -4 -35 7 -35 7 0 11 4 8 9 -3 4 0 8 6 8 6 0 8 5
5 10 -5 9 -24 14 -26 8z"/>
<path d="M1846 3878 c3 -5 10 -6 15 -3 13 9 11 12 -6 12 -8 0 -12 -4 -9 -9z"/>
<path d="M1876 3875 c-8 -23 -8 -27 3 -21 5 4 12 0 14 -6 4 -9 6 -8 6 2 0 8
-3 21 -8 28 -7 11 -10 10 -15 -3z"/>
<path d="M1910 3840 c0 -5 5 -10 11 -10 5 0 7 5 4 10 -3 6 -8 10 -11 10 -2 0
-4 -4 -4 -10z"/>
<path d="M3620 3840 c0 -5 5 -10 10 -10 6 0 10 5 10 10 0 6 -4 10 -10 10 -5 0
-10 -4 -10 -10z"/>
<path d="M1830 3811 c0 -5 6 -14 14 -20 12 -10 13 -8 9 8 -5 21 -23 30 -23 12z"/>
<path d="M1866 3812 c-3 -5 -1 -14 5 -22 5 -8 9 -11 9 -7 0 4 9 3 20 -3 15 -8
20 -8 20 3 0 16 -47 40 -54 29z"/>
<path d="M3606 3811 c-3 -5 1 -11 9 -14 9 -4 12 -1 8 9 -6 16 -10 17 -17 5z"/>
<path d="M1947 3803 c-10 -10 -8 -23 4 -23 5 0 8 4 5 9 -4 5 0 12 6 14 7 3 8
6 2 6 -6 1 -14 -2 -17 -6z"/>
<path d="M3265 3780 c-3 -5 -1 -10 4 -10 6 0 11 5 11 10 0 6 -2 10 -4 10 -3 0
-8 -4 -11 -10z"/>
<path d="M3570 3779 c0 -15 18 -19 23 -6 3 8 -1 14 -9 14 -8 0 -14 -4 -14 -8z"/>
<path d="M2009 3777 c-1 -4 -2 -16 -3 -27 0 -12 -5 -24 -11 -28 -20 -14 -16
-33 7 -30 23 3 76 35 67 40 -2 2 -16 14 -31 27 -16 14 -29 21 -29 18z m30 -41
c9 -11 9 -16 -1 -22 -22 -14 -37 -13 -31 2 3 8 10 11 17 7 6 -4 5 1 -3 10 -7
9 -9 17 -3 17 5 0 15 -6 21 -14z"/>
<path d="M1945 3759 c-19 -7 -19 -8 3 -8 15 -1 21 -5 16 -12 -4 -7 -1 -10 6
-7 19 6 23 25 8 30 -7 3 -22 2 -33 -3z"/>
<path d="M3548 3754 c6 -12 8 -25 4 -30 -4 -5 0 -3 8 4 12 10 12 15 -4 30 -18
16 -18 16 -8 -4z"/>
<path d="M1820 3719 c0 -5 5 -7 10 -4 6 3 10 8 10 11 0 2 -4 4 -10 4 -5 0 -10
-5 -10 -11z"/>
<path d="M1910 3711 c0 -25 6 -27 13 -6 4 8 2 17 -3 20 -6 4 -10 -3 -10 -14z"/>
<path d="M1940 3723 c0 -6 8 -17 18 -24 16 -13 16 -13 2 6 -8 11 -16 22 -17
24 -2 2 -3 0 -3 -6z"/>
<path d="M2750 3726 c0 -2 7 -7 16 -10 8 -3 12 -2 9 4 -6 10 -25 14 -25 6z"/>
<path d="M3064 3719 c-3 -5 -1 -16 5 -23 9 -10 7 -16 -6 -21 -10 -5 -22 -7
-26 -6 -5 1 -6 -3 -3 -8 9 -14 73 -18 73 -4 0 7 -4 10 -9 7 -13 -8 -9 10 5 25
6 7 8 12 2 11 -20 -4 -35 0 -35 10 0 5 7 7 15 4 8 -4 15 -4 15 -1 0 10 -30 16
-36 6z"/>
<path d="M3521 3707 c-8 -10 -7 -14 4 -14 8 0 15 6 15 14 0 7 -2 13 -4 13 -2
0 -9 -6 -15 -13z"/>
<path d="M2110 3676 c0 -2 8 -10 18 -17 15 -13 16 -12 3 4 -13 16 -21 21 -21
13z"/>
<path d="M3503 3667 c0 -8 6 -14 14 -14 9 0 10 4 2 14 -6 7 -12 13 -14 13 -1
0 -2 -6 -2 -13z"/>
<path d="M1956 3648 c3 -5 10 -6 15 -3 13 9 11 12 -6 12 -8 0 -12 -4 -9 -9z"/>
<path d="M3473 3633 c4 -3 -1 -16 -10 -27 -18 -21 -18 -21 4 -2 20 16 23 36 6
36 -4 0 -3 -3 0 -7z"/>
<path d="M2097 3609 c7 -7 15 -10 18 -7 3 3 -2 9 -12 12 -14 6 -15 5 -6 -5z"/>
<path d="M2730 3605 c-10 -12 -10 -15 4 -15 9 0 16 7 16 15 0 8 -2 15 -4 15
-2 0 -9 -7 -16 -15z"/>
<path d="M2056 3598 c3 -5 10 -6 15 -3 13 9 11 12 -6 12 -8 0 -12 -4 -9 -9z"/>
<path d="M1766 3568 c-3 -13 0 -27 6 -33 8 -7 9 -6 3 4 -6 11 -4 13 11 7 15
-5 16 -4 7 5 -6 6 -9 18 -6 25 3 8 1 14 -5 14 -5 0 -12 -10 -16 -22z"/>
<path d="M2710 3576 c0 -2 7 -9 15 -16 12 -10 15 -10 15 4 0 9 -7 16 -15 16
-8 0 -15 -2 -15 -4z"/>
<path d="M3512 3564 c-7 -8 -8 -14 -3 -14 10 0 25 19 20 25 -2 1 -10 -3 -17
-11z"/>
<path d="M2153 3562 c-8 -5 -9 -13 -3 -22 6 -8 10 -13 11 -10 0 3 2 13 4 23 4
19 4 19 -12 9z"/>
<path d="M2085 3550 c3 -5 8 -10 11 -10 2 0 4 5 4 10 0 6 -5 10 -11 10 -5 0
-7 -4 -4 -10z"/>
<path d="M2976 3552 c-8 -14 25 -25 36 -12 4 5 5 8 2 5 -4 -3 -13 0 -20 6 -7
6 -14 6 -18 1z"/>
<path d="M3093 3538 c-2 -18 0 -20 7 -8 12 18 13 30 2 30 -4 0 -9 -10 -9 -22z"/>
<path d="M1945 3541 c-3 -5 -1 -12 5 -16 5 -3 10 1 10 9 0 18 -6 21 -15 7z"/>
<path d="M2110 3546 c0 -2 7 -9 15 -16 9 -7 15 -8 15 -2 0 5 -7 12 -15 16 -8
3 -15 4 -15 2z"/>
<path d="M2070 3531 c0 -5 7 -12 16 -15 14 -5 15 -4 4 9 -14 17 -20 19 -20 6z"/>
<path d="M2675 3511 c-2 -5 4 -11 15 -14 11 -3 20 -2 20 3 0 12 -28 21 -35 11z"/>
<path d="M2057 3484 c3 -8 14 -19 25 -25 16 -9 19 -8 13 2 -6 9 -3 11 9 6 10
-4 24 -1 32 7 18 19 18 22 -5 22 -11 0 -17 -5 -14 -10 4 -5 1 -6 -8 -1 -24 16
-58 15 -52 -1z"/>
<path d="M2245 3490 c-3 -6 1 -7 9 -4 18 7 21 14 7 14 -6 0 -13 -4 -16 -10z"/>
<path d="M3383 3485 c0 -8 4 -12 9 -9 5 3 6 10 3 15 -9 13 -12 11 -12 -6z"/>
<path d="M2033 3483 c4 -3 3 -11 -3 -17 -5 -7 -5 -17 0 -26 8 -12 10 -12 10
-1 0 10 3 11 14 2 11 -9 16 -9 22 0 4 8 3 9 -4 5 -8 -4 -16 3 -22 18 -5 14
-13 26 -16 26 -4 0 -4 -3 -1 -7z"/>
<path d="M3435 3459 c-6 -8 -4 -10 5 -4 10 6 12 4 6 -11 -6 -15 -5 -17 5 -6 9
9 10 15 2 23 -8 8 -13 7 -18 -2z"/>
<path d="M3550 3460 c0 -5 5 -10 11 -10 5 0 7 5 4 10 -3 6 -8 10 -11 10 -2 0
-4 -4 -4 -10z"/>
<path d="M3530 3446 c0 -2 8 -10 18 -17 15 -13 16 -12 3 4 -13 16 -21 21 -21
13z"/>
<path d="M2089 3423 c-13 -16 -12 -17 4 -4 9 7 17 15 17 17 0 8 -8 3 -21 -13z"/>
<path d="M2121 3419 c1 -18 2 -20 6 -6 3 13 10 16 21 12 31 -12 56 -15 46 -5
-5 5 -24 13 -42 16 -29 6 -32 4 -31 -17z"/>
<path d="M3510 3419 c0 -5 5 -7 10 -4 6 3 10 8 10 11 0 2 -4 4 -10 4 -5 0 -10
-5 -10 -11z"/>
<path d="M3035 3410 c-3 -5 -1 -10 4 -10 6 0 11 5 11 10 0 6 -2 10 -4 10 -3 0
-8 -4 -11 -10z"/>
<path d="M3406 3409 c2 -4 0 -10 -6 -14 -5 -3 -10 -1 -10 6 0 18 -23 -5 -26
-26 -3 -22 9 -18 39 13 19 20 23 29 13 29 -8 0 -13 -4 -10 -8z"/>
<path d="M2097 3403 c-4 -3 -7 -13 -7 -21 0 -18 13 -7 16 13 2 17 1 18 -9 8z"/>
<path d="M2260 3400 c-9 -6 -10 -10 -3 -10 6 0 15 5 18 10 8 12 4 12 -15 0z"/>
<path d="M2164 3393 c11 -11 46 -14 46 -3 0 6 -12 10 -27 10 -14 0 -23 -3 -19
-7z"/>
<path d="M3485 3390 c-4 -6 -11 -8 -16 -4 -5 3 -8 0 -7 -7 2 -8 -7 -13 -22
-13 -16 -1 -26 -8 -28 -20 -3 -11 0 -16 7 -11 6 3 9 11 6 16 -4 5 1 9 10 9 13
0 14 -4 4 -22 -10 -20 -8 -20 18 5 16 15 32 25 36 22 4 -3 5 -2 2 2 -3 3 0 12
6 20 8 9 8 13 1 13 -6 0 -14 -5 -17 -10z"/>
<path d="M2180 3369 c0 -6 7 -17 15 -26 8 -8 12 -19 9 -25 -4 -7 -2 -8 4 -4 9
5 8 15 -3 37 -16 30 -25 37 -25 18z"/>
<path d="M3063 3359 c-1 -12 -1 -20 0 -18 2 2 9 12 16 22 11 14 11 17 -1 17
-7 0 -14 -10 -15 -21z"/>
<path d="M1816 3345 c7 -18 24 -20 25 -2 0 6 4 3 9 -8 8 -19 9 -19 9 3 1 17
-5 22 -24 22 -18 0 -23 -4 -19 -15z"/>
<path d="M2130 3344 c0 -14 3 -14 15 -4 8 7 15 14 15 16 0 2 -7 4 -15 4 -8 0
-15 -7 -15 -16z"/>
<path d="M3360 3315 c-18 -19 -31 -37 -28 -41 4 -3 14 6 23 20 10 14 22 23 28
19 5 -3 7 -1 3 5 -3 5 0 12 6 15 7 2 10 7 7 10 -3 4 -21 -9 -39 -28z"/>
<path d="M2156 3331 c-3 -5 1 -11 9 -15 8 -3 15 -1 15 4 0 13 -18 22 -24 11z"/>
<path d="M2026 3322 c-3 -5 1 -9 9 -9 8 0 15 4 15 9 0 4 -4 8 -9 8 -6 0 -12
-4 -15 -8z"/>
<path d="M3045 3320 c3 -5 8 -10 11 -10 2 0 4 5 4 10 0 6 -5 10 -11 10 -5 0
-7 -4 -4 -10z"/>
<path d="M3464 3309 c-19 -22 -19 -22 4 -8 12 8 22 17 22 21 0 12 -6 9 -26
-13z"/>
<path d="M2105 3310 c3 -5 8 -10 11 -10 2 0 4 5 4 10 0 6 -5 10 -11 10 -5 0
-7 -4 -4 -10z"/>
<path d="M3008 3313 c7 -3 16 -2 19 1 4 3 -2 6 -13 5 -11 0 -14 -3 -6 -6z"/>
<path d="M2970 3295 c7 -8 17 -15 22 -15 5 0 3 7 -6 15 -8 8 -18 15 -22 15 -3
0 -1 -7 6 -15z"/>
<path d="M3395 3299 c-11 -17 1 -21 15 -4 8 9 8 15 2 15 -6 0 -14 -5 -17 -11z"/>
<path d="M1996 3289 c2 -4 13 -7 24 -6 23 2 17 10 -10 12 -10 1 -17 -2 -14 -6z"/>
<path d="M2180 3284 c6 -6 6 -15 2 -19 -4 -5 0 -6 10 -2 11 4 15 1 13 -11 -2
-9 -4 -20 -4 -24 -1 -4 -8 -5 -16 -2 -8 4 -15 1 -15 -5 0 -18 28 -13 50 9 19
19 19 22 5 36 -8 9 -15 19 -15 24 0 5 -9 8 -19 7 -14 -1 -17 -5 -11 -13z"/>
<path d="M1840 3286 c0 -2 7 -7 16 -10 8 -3 12 -2 9 4 -6 10 -25 14 -25 6z"/>
<path d="M2098 3278 c-7 -17 15 -19 29 -3 4 4 3 5 -4 2 -6 -4 -13 -2 -15 5 -3
8 -6 6 -10 -4z"/>
<path d="M2250 3272 c0 -17 29 -27 42 -14 8 8 4 9 -13 6 l-24 -5 25 14 25 15
-28 -1 c-15 -1 -27 -8 -27 -15z"/>
<path d="M2140 3262 c0 -12 3 -12 15 -2 8 7 15 13 15 15 0 1 -7 2 -15 2 -8 0
-15 -7 -15 -15z"/>
<path d="M2909 3253 c-1 -2 -2 -6 -3 -10 -1 -5 -5 -13 -9 -20 -4 -6 -3 -14 2
-17 12 -8 41 3 41 16 0 5 -6 6 -12 3 -7 -4 -5 0 5 8 9 8 17 16 17 18 0 5 -39
6 -41 2z"/>
<path d="M2335 3241 c5 -10 -27 -33 -42 -30 -20 3 -24 -2 -12 -17 12 -15 11
-16 -7 -10 -15 4 -24 2 -28 -9 -3 -8 -1 -15 4 -15 5 0 7 -8 4 -17 -4 -14 -3
-15 4 -5 7 11 10 10 16 -3 5 -14 9 -15 21 -5 18 15 10 32 -12 28 -9 -2 -18 3
-21 11 -3 9 0 11 8 6 8 -5 18 -1 26 10 7 10 20 15 28 12 10 -4 13 -1 10 7 -3
7 2 13 11 13 8 0 15 -5 15 -10 0 -6 3 -8 6 -5 7 7 -18 48 -29 48 -4 0 -6 -4
-2 -9z"/>
<path d="M2248 3224 c-39 -20 -35 -26 6 -9 18 8 36 11 40 8 3 -4 6 -1 6 5 0
16 -19 14 -52 -4z"/>
<path d="M2980 3205 c-8 -45 -8 -47 2 -37 5 5 8 18 5 28 -3 11 -6 15 -7 9z"/>
<path d="M1788 3193 c7 -3 16 -2 19 1 4 3 -2 6 -13 5 -11 0 -14 -3 -6 -6z"/>
<path d="M2400 3185 c0 -8 2 -15 4 -15 2 0 6 7 10 15 3 8 1 15 -4 15 -6 0 -10
-7 -10 -15z"/>
<path d="M2188 3166 c-13 -18 -13 -23 -3 -23 8 0 12 4 9 9 -3 4 -1 8 4 8 6 0
12 7 16 15 8 23 -7 17 -26 -9z"/>
<path d="M3247 3184 c-3 -3 -3 -13 0 -21 5 -12 7 -12 14 -1 15 23 4 40 -14 22z"/>
<path d="M1849 3170 c8 -4 21 -6 29 -2 11 4 13 1 7 -8 -5 -8 -4 -11 3 -6 6 3
15 -1 20 -10 8 -15 10 -15 16 1 3 10 4 20 1 23 -3 3 -5 -1 -5 -8 0 -10 -4 -10
-17 2 -10 8 -29 15 -43 16 -18 1 -21 -1 -11 -8z"/>
<path d="M2320 3165 c0 -16 16 -20 24 -6 3 5 -1 11 -9 15 -9 3 -15 0 -15 -9z"/>
<path d="M2382 3153 c9 -10 14 -24 12 -31 -1 -7 0 -8 2 -3 3 6 13 8 22 5 15
-5 15 -4 -1 6 -9 6 -14 16 -11 22 4 7 2 8 -4 4 -7 -4 -12 -2 -12 3 0 6 -5 11
-12 11 -7 0 -6 -6 4 -17z"/>
<path d="M3203 3154 c-7 -3 -9 -12 -6 -20 4 -11 9 -12 19 -3 25 20 17 35 -13
23z"/>
<path d="M2215 3139 c3 -4 -2 -9 -10 -13 -8 -3 -14 -13 -14 -23 1 -16 2 -16 6
-1 2 9 13 20 24 23 22 7 26 22 4 22 -8 0 -12 -4 -10 -8z"/>
<path d="M2312 3129 c-18 -11 -37 -17 -42 -14 -5 3 -11 1 -15 -5 -4 -6 -12 -7
-18 -4 -7 4 -6 1 2 -7 11 -11 14 -11 18 -1 4 9 8 10 18 2 16 -13 95 4 95 20 0
13 -17 13 -25 0 -3 -5 -11 -10 -17 -10 -5 0 0 9 13 20 30 25 14 24 -29 -1z"/>
<path d="M1870 3131 c0 -5 9 -11 21 -14 16 -4 18 -3 8 9 -13 16 -29 19 -29 5z"/>
<path d="M3127 3105 c3 -8 9 -12 14 -9 12 7 11 11 -5 17 -10 4 -13 1 -9 -8z"/>
<path d="M1805 3090 c3 -5 8 -10 11 -10 2 0 4 5 4 10 0 6 -5 10 -11 10 -5 0
-7 -4 -4 -10z"/>
<path d="M2323 3089 c-18 -5 -35 -14 -39 -20 -4 -8 0 -8 14 0 17 9 22 8 27
-10 7 -21 -13 -45 -25 -32 -3 3 1 8 8 10 6 3 12 9 12 15 0 6 -6 5 -15 -2 -9
-7 -14 -19 -11 -25 2 -7 -1 -19 -7 -26 -10 -10 -9 -11 3 -3 23 17 52 25 45 14
-11 -17 22 -11 46 9 19 15 21 22 12 32 -10 10 -15 9 -28 -1 -8 -7 -18 -11 -21
-8 -2 3 6 12 20 21 21 14 26 14 42 1 11 -9 13 -13 7 -9 -14 6 -8 -20 9 -41 5
-7 8 -16 7 -20 -3 -19 2 -30 24 -54 26 -30 41 -34 57 -16 8 11 8 16 -1 22 -8
5 -9 3 -4 -6 5 -9 4 -11 -4 -6 -6 4 -8 13 -4 19 14 22 11 35 -7 32 -26 -5 -72
43 -64 67 4 14 0 21 -15 25 -12 3 -21 8 -21 12 0 10 -30 10 -67 0z m42 -9 c-3
-5 -12 -10 -18 -10 -7 0 -6 4 3 10 19 12 23 12 15 0z m125 -104 c0 -2 -8 -10
-17 -17 -16 -13 -17 -12 -4 4 13 16 21 21 21 13z"/>
<path d="M2244 3048 c9 -14 13 -28 9 -33 -5 -4 -2 -5 5 -1 13 8 2 39 -19 52
-6 3 -4 -5 5 -18z"/>
<path d="M2430 3041 c0 -13 29 -35 37 -28 7 8 -15 37 -28 37 -5 0 -9 -4 -9 -9z"/>
<path d="M2375 3001 c-17 -10 -36 -17 -43 -15 -7 1 -8 0 -2 -3 18 -9 12 -36
-7 -28 -12 4 -15 3 -8 -4 6 -5 23 -13 39 -17 26 -6 28 -5 21 15 -4 12 -2 21 4
21 6 0 11 -3 12 -7 0 -5 2 -18 3 -30 2 -15 -2 -19 -12 -16 -11 5 -11 0 2 -26
9 -17 22 -31 29 -30 9 0 9 2 0 6 -18 7 -16 28 5 44 14 11 15 11 5 -1 -17 -19
-17 -35 0 -21 8 6 18 7 22 3 5 -4 5 2 2 13 -6 18 -5 17 9 -2 9 -13 26 -23 38
-24 14 -1 10 -4 -13 -10 -18 -6 -36 -8 -39 -5 -3 3 3 6 13 6 20 0 13 13 -9 16
-8 1 -13 -5 -11 -15 2 -9 4 -19 4 -23 1 -6 52 -2 77 7 6 1 11 -2 11 -9 0 -7
-12 -11 -29 -10 -15 1 -28 -3 -28 -8 0 -6 9 -8 20 -5 16 4 20 0 20 -19 0 -13
-6 -24 -12 -25 -7 0 -2 -5 12 -10 20 -8 22 -12 10 -20 -11 -8 -10 -9 8 -4 16
5 22 2 22 -9 0 -9 4 -16 9 -16 5 0 8 -14 7 -31 -2 -24 2 -33 17 -37 19 -5 19
-6 2 -19 -18 -12 -18 -13 -1 -13 12 0 16 -5 13 -15 -6 -13 9 -32 18 -23 12 12
-43 260 -56 252 -5 -3 -9 6 -9 21 0 14 -6 28 -14 31 -8 3 -12 12 -9 20 7 19
-14 18 -25 -1 -7 -14 -11 -13 -34 5 -14 11 -32 20 -40 20 -7 0 -18 12 -25 26
-10 21 -9 25 1 21 8 -3 12 2 11 14 -2 28 -8 30 -40 10z m-5 -26 c-7 -9 -15
-13 -17 -11 -7 7 7 26 19 26 6 0 6 -6 -2 -15z m184 -200 c-7 -17 -20 -20 -29
-6 -3 5 3 12 12 14 10 3 19 5 20 6 1 0 0 -6 -3 -14z"/>
<path d="M2234 2962 c2 -9 9 -17 17 -17 8 -1 13 -6 12 -11 -1 -6 4 -11 12 -11
10 0 10 5 -3 23 -22 30 -41 38 -38 16z"/>
<path d="M2085 2921 c-8 -27 -2 -36 13 -18 6 7 7 18 3 26 -7 10 -10 8 -16 -8z"/>
<path d="M2995 2916 c-17 -26 -14 -63 4 -52 5 4 11 3 14 -1 2 -5 3 -3 1 3 -1
7 8 22 21 34 14 13 22 27 19 32 -8 13 -25 -1 -18 -15 3 -7 -1 -4 -9 6 -15 18
-16 18 -32 -7z m25 -15 c0 -5 -6 -14 -14 -20 -12 -10 -14 -9 -11 6 2 10 4 19
4 21 2 6 21 1 21 -7z"/>
<path d="M2325 2921 c-3 -5 -2 -12 3 -15 5 -3 9 1 9 9 0 17 -3 19 -12 6z"/>
<path d="M2275 2894 c-12 -11 -15 -15 -8 -10 17 11 25 3 28 -26 1 -13 3 -27 4
-31 0 -5 10 -7 20 -5 20 3 96 -68 82 -76 -4 -3 -7 -23 -6 -45 3 -74 5 -78 19
-46 11 26 11 33 -3 50 -11 13 -7 12 15 -5 17 -14 29 -29 26 -34 -2 -4 -8 -3
-12 4 -5 8 -9 5 -12 -8 -4 -14 0 -22 13 -25 13 -4 17 -11 13 -24 -5 -15 -4
-15 5 -3 6 8 11 13 12 10 0 -3 2 -15 5 -28 3 -17 0 -21 -8 -16 -7 4 -10 3 -5
-1 4 -5 16 -9 25 -10 20 -1 23 20 7 45 -29 44 -33 58 -21 71 8 9 8 10 -2 5 -7
-4 -15 -1 -18 9 -4 8 -18 23 -33 31 -14 8 -18 13 -8 10 24 -7 11 15 -43 77
-23 26 -39 47 -35 47 4 0 2 7 -5 15 -7 8 -16 13 -20 10 -5 -3 -10 2 -12 11 -3
15 -5 14 -23 -2z m49 -63 c-9 -10 -26 18 -18 30 5 9 9 8 14 -7 4 -10 6 -21 4
-23z"/>
<path d="M2000 2890 c0 -5 5 -10 11 -10 5 0 7 5 4 10 -3 6 -8 10 -11 10 -2 0
-4 -4 -4 -10z"/>
<path d="M2407 2833 c4 -10 2 -14 -4 -10 -6 4 1 -15 15 -42 28 -53 53 -61 58
-18 2 20 -1 25 -14 20 -14 -4 -14 -3 -3 5 8 6 21 8 29 4 10 -3 13 -1 8 6 -4 7
-14 12 -22 12 -8 0 -14 8 -14 18 0 13 -2 14 -9 4 -7 -11 -9 -11 -14 2 -4 9
-13 16 -21 16 -10 0 -13 -6 -9 -17z m24 -30 c13 -16 12 -17 -3 -4 -10 7 -18
15 -18 17 0 8 8 3 21 -13z"/>
<path d="M2323 2795 c0 -8 4 -12 8 -9 4 2 13 -4 18 -15 8 -15 7 -20 -5 -25
-12 -5 -15 -2 -10 9 3 10 2 13 -5 10 -18 -12 -4 -28 27 -32 22 -3 25 -1 14 7
-11 7 -11 10 -2 10 8 0 5 8 -8 22 -11 12 -20 25 -20 30 0 4 -4 8 -8 8 -5 0 -9
-7 -9 -15z"/>
<path d="M2660 2785 c0 -8 2 -15 4 -15 2 0 6 7 10 15 3 8 1 15 -4 15 -6 0 -10
-7 -10 -15z"/>
<path d="M2692 2750 c0 -14 2 -19 5 -12 2 6 2 18 0 25 -3 6 -5 1 -5 -13z"/>
<path d="M2539 2701 c8 -5 10 -14 6 -22 -6 -11 -5 -11 5 -2 14 12 6 33 -13 33
-8 0 -7 -3 2 -9z"/>
<path d="M2720 2630 c0 -5 7 -10 16 -10 8 0 12 5 9 10 -3 6 -10 10 -16 10 -5
0 -9 -4 -9 -10z"/>
<path d="M2420 2596 c0 -2 7 -7 16 -10 8 -3 12 -2 9 4 -6 10 -25 14 -25 6z"/>
<path d="M2609 2557 c9 -11 10 -17 2 -17 -6 0 -11 -5 -11 -11 0 -5 4 -8 9 -4
5 3 12 -3 14 -12 3 -10 4 -3 3 16 -1 20 -7 36 -16 39 -13 5 -13 3 -1 -11z"/>
<path d="M2518 2543 c7 -3 16 -2 19 1 4 3 -2 6 -13 5 -11 0 -14 -3 -6 -6z"/>
<path d="M2562 2417 c66 -178 67 -181 38 -1122 -12 -428 -13 -985 0 -985 5 0
14 8 19 18 12 22 23 1023 11 1042 -5 8 -5 21 1 32 10 18 15 244 8 335 -2 28
-1 49 3 47 5 -3 8 14 9 38 4 222 3 300 -4 305 -4 2 0 12 10 21 14 13 18 32 17
82 0 53 -7 79 -36 140 -19 41 -45 83 -56 94 -12 10 -20 22 -17 25 2 4 -5 7
-15 8 -16 1 -15 -6 12 -80z"/>
<path d="M2625 2470 c3 -5 8 -10 11 -10 2 0 4 5 4 10 0 6 -5 10 -11 10 -5 0
-7 -4 -4 -10z"/>
<path d="M2675 2420 c-4 -17 -5 -34 -2 -36 2 -3 7 10 11 27 8 42 0 50 -9 9z"/>
</g>
</svg>
